<?xml version="1.0" encoding="UTF-8" standalone="no"?>
<svg
   fill="#000000"
   width="24.00145"
   height="25.727749"
   viewBox="0 0 0.72004349 0.77183247"
   xml:space="preserve"
   version="1.1"
   id="svg678"
   sodipodi:docname="mastodon.svg"
   inkscape:export-filename="mastodon.svg"
   inkscape:export-xdpi="69.120003"
   inkscape:export-ydpi="69.120003"
   xmlns:inkscape="http://www.inkscape.org/namespaces/inkscape"
   xmlns:sodipodi="http://sodipodi.sourceforge.net/DTD/sodipodi-0.dtd"
   xmlns="http://www.w3.org/2000/svg"
   xmlns:svg="http://www.w3.org/2000/svg"><defs
     id="defs682" /><sodipodi:namedview
     id="namedview680"
     pagecolor="#ffffff"
     bordercolor="#000000"
     borderopacity="0.25"
     inkscape:showpageshadow="2"
     inkscape:pageopacity="0.0"
     inkscape:pagecheckerboard="0"
     inkscape:deskcolor="#d1d1d1"
     showgrid="false" /><path
     d="m 0.71994531,0.253396 c 0,-0.167454 -0.10972,-0.216506 -0.10972,-0.216506 C 0.55492531,0.0115 0.45994531,8.1e-4 0.36126431,0 h -0.0024 c -0.09868,8.1e-4 -0.193581,0.0115 -0.248923,0.03689 0,0 -0.10971900163,0.04909 -0.10971900163,0.216506 0,0.03832 -7.33e-4,0.08417 4.63e-4,0.132797 C 0.00468531,0.549942 0.03071531,0.711337 0.18211031,0.751396 c 0.06981,0.01849 0.129748,0.02234 0.177989,0.01968 0.08753,-0.0049 0.136657,-0.03122 0.136657,-0.03122 l -0.0029,-0.06352 c 0,0 -0.06256,0.01972 -0.132798,0.01733 -0.06962,-0.0024 -0.143063,-0.0075 -0.154332,-0.09297 a 0.17455497,0.17455497 0 0 1 -0.0015,-0.02397 c 0,0 0.06831,0.01671 0.154911,0.02068 0.05295,0.0024 0.10258,-0.0031 0.15302,-0.0091 0.09671,-0.01154 0.180923,-0.07113 0.191498,-0.12558 0.01675,-0.08579 0.01536,-0.209327 0.01536,-0.209327 z m -0.129402,0.215733 h -0.08031 V 0.272345 c 0,-0.04149 -0.01744,-0.06252 -0.05237,-0.06252 -0.03859,0 -0.05793,0.02497 -0.05793,0.07437 v 0.107712 h -0.07985 V 0.284195 c 0,-0.0494 -0.01933,-0.07437 -0.05797,-0.07437 -0.03493,0 -0.05237,0.02107 -0.05237,0.06252 v 0.196784 h -0.08031 V 0.266401 c 0,-0.04145 0.01054,-0.07437 0.03176,-0.09872 0.02184,-0.02435 0.05044,-0.03686 0.08598,-0.03686 0.0411,0 0.07225,0.01578 0.09282,0.04739 l 0.01999,0.03354 0.02003,-0.03354 c 0.02057,-0.03161 0.05171,-0.04739 0.09282,-0.04739 0.03551,0 0.06414,0.0125 0.08598,0.03686 0.02119,0.02435 0.03172,0.05727 0.03172,0.09872 z"
     id="path676"
     style="stroke-width:0.0385927" /></svg>
