<?xml version="1.0" encoding="UTF-8" standalone="no"?>
<svg
   viewBox="0 0 9.375 9.375"
   width="24"
   height="24"
   version="1.1"
   id="svg736"
   xmlns="http://www.w3.org/2000/svg">
  <defs
     id="defs740" />
  <path
     d="M 4.6875,0 C 2.101079,0 0,2.101079 0,4.6875 0,7.273921 2.101079,9.375 4.6875,9.375 7.273921,9.375 9.375,7.273921 9.375,4.6875 9.375,2.101079 7.273921,0 4.6875,0 Z m 0,0.407609 c 2.366133,0 4.279891,1.913758 4.279891,4.279891 0,2.366133 -1.913758,4.279891 -4.279891,4.279891 -2.366133,0 -4.279891,-1.913758 -4.279891,-4.279891 0,-2.366133 1.913758,-4.279891 4.279891,-4.279891 z M 2.853261,2.649457 V 3.872283 H 4.076087 V 7.336957 H 5.298913 V 3.872283 H 6.521739 V 2.649457 Z"
     id="path734"
     style="stroke-width:0.203804" />
</svg>
