<?xml version="1.0" encoding="UTF-8"?>
<!DOCTYPE svg PUBLIC "-//W3C//DTD SVG 1.1//EN" "http://www.w3.org/Graphics/SVG/1.1/DTD/svg11.dtd">
<svg xmlns="http://www.w3.org/2000/svg" version="1.1" width="256px" height="256px" style="shape-rendering:geometricPrecision; text-rendering:geometricPrecision; image-rendering:optimizeQuality; fill-rule:evenodd; clip-rule:evenodd" xmlns:xlink="http://www.w3.org/1999/xlink">
<g><path style="opacity:0.931" fill="#f5f5f5" d="M 38.5,39.5 C 41.4245,39.4598 44.0912,40.2932 46.5,42C 66.4387,53.8864 86.6053,65.3864 107,76.5C 113.963,71.7077 120.796,66.7077 127.5,61.5C 133.167,66 138.833,70.5 144.5,75C 146.044,76.1871 147.711,76.5205 149.5,76C 169.33,64.9194 188.997,53.586 208.5,42C 216.844,37.3428 219.344,39.5095 216,48.5C 213.333,55.1667 210.667,61.8333 208,68.5C 203.285,69.7788 198.452,70.6121 193.5,71C 196.514,74.6779 199.514,78.3445 202.5,82C 200.127,88.9516 197.461,95.7849 194.5,102.5C 202.94,110.979 212.106,118.646 222,125.5C 222.706,127.971 222.373,130.305 221,132.5C 209.167,142.333 197.333,152.167 185.5,162C 183.61,163.112 181.61,163.946 179.5,164.5C 162.151,156.825 144.818,149.158 127.5,141.5C 110.736,148.714 94.0689,156.214 77.5,164C 74.5808,164.552 71.9141,163.885 69.5,162C 58.8333,153.333 48.1667,144.667 37.5,136C 33.6397,133.452 32.1397,129.952 33,125.5C 42.8938,118.646 52.0604,110.979 60.5,102.5C 52.2689,82.7064 44.6022,62.7064 37.5,42.5C 37.685,41.4163 38.0183,40.4163 38.5,39.5 Z M 81.5,115.5 C 91.4,118.785 101.067,122.618 110.5,127C 108.844,128.829 106.844,130.163 104.5,131C 97.8333,133.667 91.1667,136.333 84.5,139C 82.8333,139.667 81.1667,139.667 79.5,139C 74.9921,135.658 70.9921,131.825 67.5,127.5C 71.8918,123.103 76.5584,119.103 81.5,115.5 Z M 171.5,115.5 C 177.668,118.328 183.002,122.328 187.5,127.5C 184.008,131.825 180.008,135.658 175.5,139C 173.833,139.667 172.167,139.667 170.5,139C 163.833,136.333 157.167,133.667 150.5,131C 148.156,130.163 146.156,128.829 144.5,127C 153.526,123.053 162.526,119.219 171.5,115.5 Z"/></g>
<g><path style="opacity:0.927" fill="#b96210" d="M 124.5,150.5 C 127.32,150.248 129.986,150.748 132.5,152C 143.925,159.128 155.092,166.628 166,174.5C 163.181,184.83 159.181,194.83 154,204.5C 153.097,205.701 151.931,206.535 150.5,207C 135.167,207.667 119.833,207.667 104.5,207C 100.921,204.369 98.4212,200.869 97,196.5C 94.4423,189.718 91.6089,183.051 88.5,176.5C 89,175.5 89.5,174.5 90,173.5C 101.651,165.934 113.151,158.267 124.5,150.5 Z"/></g>
</svg>